<svg xmlns="http://www.w3.org/2000/svg" style="display: none">
	<symbol id="icon-vk" viewBox="0 0 14.171 14.171">
    <path d="M13.268,0H0.905C0.405,0,0,0.405,0,0.904v12.363c0,0.499,0.405,0.904,0.905,0.904h12.362
      c0.499,0,0.904-0.405,0.904-0.904V0.904C14.172,0.404,13.767,0,13.268,0z M11.755,8.635c0.259,0.264,0.821,0.707,0.719,1.158
      c-0.094,0.414-0.712,0.263-1.312,0.287c-0.685,0.029-1.091,0.044-1.503-0.287C9.465,9.636,9.351,9.45,9.165,9.242
      C8.996,9.054,8.783,8.717,8.493,8.73C7.972,8.756,8.135,9.482,7.95,9.977c-2.896,0.456-4.059-1.333-5.085-3.069
      C2.368,6.067,1.65,4.261,1.65,4.261l2.048-0.007c0,0,0.657,1.195,0.831,1.503c0.148,0.262,0.311,0.47,0.479,0.704
      c0.141,0.194,0.364,0.574,0.608,0.543c0.397-0.051,0.469-1.591,0.223-2.107C5.741,4.688,5.506,4.615,5.263,4.544
      C5.345,4.026,7.56,3.918,7.918,4.32c0.52,0.584-0.36,2.21,0.352,2.684c1-0.524,1.854-2.718,1.854-2.718l2.398,0.015
      c0,0-0.375,1.186-0.768,1.712c-0.229,0.308-0.989,0.994-0.959,1.503C10.819,7.919,11.437,8.311,11.755,8.635z"/>
    </symbol>
    <symbol id="icon-fb" viewBox="0 0 510 510">
      <path d="M459,0H51C22.95,0,0,22.95,0,51v408c0,28.05,22.95,51,51,51h408c28.05,0,51-22.95,51-51V51C510,22.95,487.05,0,459,0z
       M433.5,51v76.5h-51c-15.3,0-25.5,10.2-25.5,25.5v51h76.5v76.5H357V459h-76.5V280.5h-51V204h51v-63.75
       C280.5,91.8,321.3,51,369.75,51H433.5z"/>
     </symbol>
     <symbol id="icon-in" viewBox="0 0 430.117 430.118">
      <path d="M398.355,0H31.782C14.229,0,0.002,13.793,0.002,30.817v368.471
        c0,17.025,14.232,30.83,31.78,30.83h366.573c17.549,0,31.76-13.814,31.76-30.83V30.817C430.115,13.798,415.904,0,398.355,0z
        M130.4,360.038H65.413V165.845H130.4V360.038z M97.913,139.315h-0.437c-21.793,0-35.92-14.904-35.92-33.563
        c0-19.035,14.542-33.535,36.767-33.535c22.227,0,35.899,14.496,36.331,33.535C134.654,124.415,120.555,139.315,97.913,139.315z
        M364.659,360.038h-64.966V256.138c0-26.107-9.413-43.921-32.907-43.921c-17.973,0-28.642,12.018-33.327,23.621
        c-1.736,4.144-2.166,9.94-2.166,15.728v108.468h-64.954c0,0,0.85-175.979,0-194.192h64.964v27.531
        c8.624-13.229,24.035-32.1,58.534-32.1c42.76,0,74.822,27.739,74.822,87.414V360.038z M230.883,193.99
        c0.111-0.182,0.266-0.401,0.42-0.614v0.614H230.883z"/>
      </symbol>
    </svg>
